<svg id="Group_100" data-name="Group 100" xmlns="http://www.w3.org/2000/svg" width="94.977" height="94.977" viewBox="0 0 94.977 94.977">
  <rect id="Rectangle_42" data-name="Rectangle 42" width="94.977" height="94.977" transform="translate(0 0)" fill="#8b734a"/>
  <rect id="Rectangle_43" data-name="Rectangle 43" width="87.913" height="87.913" transform="translate(3.532 3.532)" fill="#4a611c"/>
  <g id="Group_97" data-name="Group 97" transform="translate(27.241 79.345)">
    <path id="Path_19" data-name="Path 19" d="M194.207,560.178l2.144-5.439h.345l2.347,5.74a.539.539,0,0,0,.31.345,2.557,2.557,0,0,0,.478.044v.4h-2.719v-.4a7.428,7.428,0,0,0,.744-.053.179.179,0,0,0,.186-.195.424.424,0,0,0-.035-.151l-.523-1.284h-2.391q-.142.354-.266.717a1.688,1.688,0,0,0-.106.461.431.431,0,0,0,.319.434,2.078,2.078,0,0,0,.585.071v.4h-2.338v-.4A.954.954,0,0,0,194.207,560.178Zm1.054-1.444h2.055l-1.045-2.6Z" transform="translate(-193.286 -554.739)" fill="#fff" fill-rule="evenodd"/>
    <path id="Path_20" data-name="Path 20" d="M228.063,569.3v-.31h.221a1.94,1.94,0,0,0,.434-.071c.047-.023.071-.083.071-.177v-2.471a1.837,1.837,0,0,0-.044-.5q-.027-.062-.23-.106l-.452-.018v-.372l1.523-.088v.753a1.558,1.558,0,0,1,1.373-.886,1.485,1.485,0,0,1,.7.177,1.283,1.283,0,0,1,.593.709,2.538,2.538,0,0,1,.115.841v1.9a.363.363,0,0,0,.009.062v.071a.147.147,0,0,0,.151.141q.133.009.39.018l.159.009v.31h-2.241v-.31l.443-.018a.3.3,0,0,0,.213-.071.856.856,0,0,1,.053-.089.747.747,0,0,0,.009-.133v-1.922a4.083,4.083,0,0,0-.044-.593.583.583,0,0,0-.275-.416.9.9,0,0,0-.531-.169,1.007,1.007,0,0,0-.912.585,2.163,2.163,0,0,0-.186,1.027v1.479c0,.012,0,.062.009.151s.089.133.23.151q.15.009.31.009l.168.009v.31Z" transform="translate(-220.362 -562.774)" fill="#fff" fill-rule="evenodd"/>
    <path id="Path_21" data-name="Path 21" d="M256.64,559.759v-.39q1.063-.071,1.187-1.789h.354v1.789h1.32v.39h-1.32v2.648q0,.682.576.682a.585.585,0,0,0,.549-.434,2,2,0,0,0,.133-.771h.354q.018,1.728-1.338,1.727a1.177,1.177,0,0,1-.779-.266.883.883,0,0,1-.31-.691v-2.9Z" transform="translate(-242.611 -556.951)" fill="#fff" fill-rule="evenodd"/>
    <path id="Path_22" data-name="Path 22" d="M281.178,567.31h-2.9a1.945,1.945,0,0,0,.266,1.143,1.1,1.1,0,0,0,.992.532,1.377,1.377,0,0,0,1.152-.611q.071-.106.195-.336l.3.168a1.868,1.868,0,0,1-1.8,1.231,1.911,1.911,0,0,1-1.5-.611,2.17,2.17,0,0,1-.514-1.515,2.389,2.389,0,0,1,.531-1.568,1.8,1.8,0,0,1,1.453-.682,1.657,1.657,0,0,1,1.479.894,3.52,3.52,0,0,1,.292.975Q281.16,567.079,281.178,567.31Zm-2.879-.363h1.488a.956.956,0,0,0,.345-.035q.115-.053.115-.293a1.488,1.488,0,0,0-.2-.815.779.779,0,0,0-.709-.39Q278.406,565.414,278.3,566.946Z" transform="translate(-258.757 -562.774)" fill="#fff" fill-rule="evenodd"/>
    <path id="Path_23" data-name="Path 23" d="M305.19,557.706v-2.152a.429.429,0,0,0-.08-.266.8.8,0,0,0-.425-.08q-.062,0-.195-.009h-.2v-.372l1.718-.089v5.7q0,.3.115.381a1.089,1.089,0,0,0,.425.071l.177.009v.372l-1.532.089v-.771a1.882,1.882,0,0,1-.168.292,1.138,1.138,0,0,1-1.054.523,1.685,1.685,0,0,1-1.329-.664,2.23,2.23,0,0,1-.443-1.47,2.481,2.481,0,0,1,.443-1.523,1.59,1.59,0,0,1,1.32-.717A1.34,1.34,0,0,1,305.19,557.706Zm-1.063,3.224h.009a.891.891,0,0,0,.841-.576,2.553,2.553,0,0,0,.213-1.107,2.637,2.637,0,0,0-.2-1.178.925.925,0,0,0-.841-.576.887.887,0,0,0-.85.611,3.443,3.443,0,0,0-.009,2.259A.88.88,0,0,0,304.127,560.931Z" transform="translate(-278.079 -554.739)" fill="#fff" fill-rule="evenodd"/>
    <path id="Path_24" data-name="Path 24" d="M331.181,569.435a1.688,1.688,0,0,1-1.391-.656,2.3,2.3,0,0,1-.5-1.5,2.38,2.38,0,0,1,.514-1.541,1.677,1.677,0,0,1,1.355-.682,1.782,1.782,0,0,1,1.453.673,2.411,2.411,0,0,1,.5,1.559,2.255,2.255,0,0,1-.5,1.514A1.782,1.782,0,0,1,331.181,569.435Zm.035-4.021q-1.019,0-1.019,1.878a3.324,3.324,0,0,0,.169,1.134q.248.673.806.673,1.045,0,1.045-1.807a3.633,3.633,0,0,0-.159-1.232A.867.867,0,0,0,331.216,565.414Z" transform="translate(-299.176 -562.774)" fill="#fff" fill-rule="evenodd"/>
    <path id="Path_25" data-name="Path 25" d="M353.512,569.3v-.31h.221a1.938,1.938,0,0,0,.434-.071c.047-.023.071-.083.071-.177v-2.471a1.823,1.823,0,0,0-.045-.5q-.026-.062-.23-.106l-.452-.018v-.372l1.524-.088v.753a1.558,1.558,0,0,1,1.373-.886,1.485,1.485,0,0,1,.7.177,1.283,1.283,0,0,1,.593.709,2.537,2.537,0,0,1,.115.841v1.9a.373.373,0,0,0,.009.062v.071a.147.147,0,0,0,.151.141q.133.009.39.018l.159.009v.31h-2.241v-.31l.443-.018a.3.3,0,0,0,.212-.071.9.9,0,0,1,.053-.089.746.746,0,0,0,.009-.133v-1.922a4.058,4.058,0,0,0-.045-.593.582.582,0,0,0-.274-.416.9.9,0,0,0-.531-.169,1.008,1.008,0,0,0-.913.585,2.165,2.165,0,0,0-.186,1.027v1.479c0,.012,0,.062.009.151s.089.133.23.151q.15.009.31.009l.168.009v.31Z" transform="translate(-318.031 -562.774)" fill="#fff" fill-rule="evenodd"/>
  </g>
  <g id="Group_99" data-name="Group 99" transform="translate(16.341 51.413)">
    <g id="Group_98" data-name="Group 98" transform="translate(0 20.103)">
      <rect id="Rectangle_44" data-name="Rectangle 44" width="15.927" height="0.616" fill="#8b734a"/>
      <rect id="Rectangle_45" data-name="Rectangle 45" width="15.927" height="0.616" transform="translate(46.368)" fill="#8b734a"/>
    </g>
    <path id="Path_26" data-name="Path 26" d="M211.827,433.663h.961l-.5-2.067Zm-1.137,5.284q-.1.508-.148.809a3.5,3.5,0,0,0-.048.6c0,.316.074.458.161.515a1.926,1.926,0,0,0,.69.2h.587v.625h-3.146v-.625h.706l2.561-12.47h.537l2.856,10.406q.115.433.247.886a5.7,5.7,0,0,0,.287.731.855.855,0,0,0,.272.335,1.416,1.416,0,0,0,.462.118l.093.012v.607h-2.914v-.625h.961L213.1,434.72h-1.47Zm-44.83-5.284h.961l-.5-2.067Zm-1.137,5.284q-.1.508-.148.809a3.515,3.515,0,0,0-.047.6c0,.316.074.458.161.515a1.924,1.924,0,0,0,.69.2h.587v.625H162.82v-.625h.706l2.561-12.47h.537l2.856,10.406q.115.433.247.886a5.706,5.706,0,0,0,.287.731.856.856,0,0,0,.272.335,1.415,1.415,0,0,0,.461.118l.093.012v.607h-2.914v-.625h.961l-1.753-6.352h-1.47Zm16.961-9.075h-.925v4.2l1.984-3.167c.119-.185.229-.374.326-.56a.888.888,0,0,0,.146-.362c0-.066-.018-.072-.049-.079a1.823,1.823,0,0,0-.41-.034h-.383v-.625h3.162v.625h-1.127l-2.666,4.077,2.868,5.6a4.567,4.567,0,0,0,.768,1.217,1.287,1.287,0,0,0,.5.254,3.213,3.213,0,0,0,.63.053h.152v.625h-3.427v-.625h.8l-2.915-6.148-.362.609v4.859c0,.362.079.518.162.572a1.73,1.73,0,0,0,.744.108h.152v.625h-3.162v-.625h.925v-10.52c0-.365-.085-.509-.159-.552a1.5,1.5,0,0,0-.747-.129h-.152v-.625h3.162Zm15.455,0h-.925v4.2l1.984-3.167c.118-.185.229-.374.326-.56a.888.888,0,0,0,.146-.362c0-.066-.018-.072-.049-.079a1.825,1.825,0,0,0-.41-.034h-.383v-.625h3.162v.625h-1.127l-2.666,4.077,2.868,5.6a4.566,4.566,0,0,0,.768,1.217,1.287,1.287,0,0,0,.5.254,3.213,3.213,0,0,0,.63.053h.152v.625h-3.427v-.625h.8l-2.915-6.148-.362.609v4.859c0,.362.079.518.162.572a1.73,1.73,0,0,0,.744.108h.152v.625h-3.162v-.625h.925v-10.52c0-.365-.085-.509-.159-.552a1.5,1.5,0,0,0-.747-.129h-.152v-.625h3.162Z" transform="translate(-158.666 -428.603)" fill="#fff" fill-rule="evenodd"/>
    <path id="Path_27" data-name="Path 27" d="M230.811,513.25c.036.037.106.055.255.055h.13v.381h-1.337v-.381h.349v-3.894a.4.4,0,0,0-.016-.126c-.033-.035-.107-.058-.254-.058h-.13v-.38h1.337v.381H230.8v.882h1.018v-.7a.4.4,0,0,0-.016-.126c-.033-.035-.107-.058-.254-.058h-.13v-.38h1.337v.381H232.4v3.894a.435.435,0,0,0,.015.129c.036.037.105.055.254.055h.13v.381h-1.337v-.381h.349v-2.78H230.8v2.6A.435.435,0,0,0,230.811,513.25Zm7.265-3.813a2.519,2.519,0,0,1,.677,1.8,2.57,2.57,0,0,1-.715,1.837,2.246,2.246,0,0,1-1.677.747,2.145,2.145,0,0,1-1.628-.727,2.736,2.736,0,0,1,.039-3.631,2.256,2.256,0,0,1,1.683-.754A2.138,2.138,0,0,1,238.075,509.437Zm-2.9,3.311a1.569,1.569,0,0,0,1.275.643,1.508,1.508,0,0,0,1.208-.6,2.205,2.205,0,0,0,.506-1.451,2.343,2.343,0,0,0-.544-1.545,1.594,1.594,0,0,0-1.283-.652,1.474,1.474,0,0,0-1.189.594,2.222,2.222,0,0,0-.494,1.452A2.433,2.433,0,0,0,235.172,512.748Zm6.958-2.352q0-.342-.024-.579c-.021-.21-.109-.471-.283-.543a1.086,1.086,0,0,0-.337-.045v3.821a.533.533,0,0,0,.033.228.779.779,0,0,0,.224.027h.267v.381h-1.462v-.381h.349v-4.077a1.131,1.131,0,0,0-.339.046c-.18.075-.251.339-.275.558a4.965,4.965,0,0,0-.03.563v.28h-.365v-2.05h.365v.221h1.878v-.221h.365v2.05h-.365Zm3.35,2.542a1.671,1.671,0,0,0,.052-.444v-.465h.365v1.943h-.365v-.286h-1.881v-.381h.374v-3.894a.4.4,0,0,0-.015-.126c-.033-.035-.107-.058-.254-.058h-.13v-.38h1.906v-.285h.365v1.8h-.365V510a1.787,1.787,0,0,0-.04-.425.335.335,0,0,0-.136-.2.658.658,0,0,0-.3-.106,2.569,2.569,0,0,0-.411-.034l-.026.868h.264V509.4h.365v1.95h-.365v-.308a1.011,1.011,0,0,0-.076-.425.184.184,0,0,0-.163-.1l-.025,2.79C245,513.306,245.394,513.272,245.481,512.938Zm3.518,0a1.74,1.74,0,0,0,.034-.378v-1.093h.365v2.507h-.365v-.286h-1.769v-.381h.361v-3.894a.39.39,0,0,0-.015-.126c-.033-.035-.107-.058-.254-.058h-.13v-.38h1.337v.381h-.349v4.078a2.766,2.766,0,0,0,.371-.026A.524.524,0,0,0,249,512.936Zm3.714-1.736.03.059a.776.776,0,0,1,.088.349.759.759,0,0,1-.151.471.507.507,0,0,1-.421.208.578.578,0,0,1-.242-.056l-.047-.02.06-.326.04-.009a.2.2,0,0,0,.155-.091.292.292,0,0,0,.053-.171.45.45,0,0,0-.419-.463.506.506,0,0,0-.456.28,1.331,1.331,0,0,0-.187.71,1.171,1.171,0,0,0,1.116,1.24,1.111,1.111,0,0,0,.8-.328,1.1,1.1,0,0,0,.346-.841.771.771,0,0,0-.217-.579A3.484,3.484,0,0,0,252.713,511.2Zm.152-1.619a.959.959,0,0,0-.1-.293c-.038-.082-.118-.14-.294-.14a.457.457,0,0,0-.419.5.61.61,0,0,0,.178.493,7.079,7.079,0,0,0,.671.468,4.646,4.646,0,0,1,.788.6,1.242,1.242,0,0,1,.338.927,1.55,1.55,0,0,1-.536,1.225,1.767,1.767,0,0,1-1.2.46,1.618,1.618,0,0,1-1.142-.449,1.683,1.683,0,0,1-.143-2.2,1.1,1.1,0,0,1,.886-.441,1.139,1.139,0,0,1,.174.013,2.307,2.307,0,0,1-.244-.223,1.1,1.1,0,0,1-.246-.773,1.021,1.021,0,0,1,.293-.748.961.961,0,0,1,.7-.295.715.715,0,0,1,.211.027c.024.007.055.018.095.032v-.209h.365v2.029h-.365v-.672C252.877,509.771,252.873,509.659,252.865,509.581Z" transform="translate(-210.82 -490.855)" fill="#fff" fill-rule="evenodd"/>
  </g>
  <path id="Path_28" data-name="Path 28" d="M225.2,265.121a7.714,7.714,0,0,0-1.267-4.253,9.46,9.46,0,0,1-3.139-.819l-2.507,4.64a7.408,7.408,0,0,0,6.116,3.86A7.724,7.724,0,0,0,225.2,265.121Zm-3.468-6.464-.365.329-.049.091a8.926,8.926,0,0,0,1.4.358A7.8,7.8,0,0,0,221.736,258.657Zm9.78-.611a9.524,9.524,0,0,1-6.133,2.833,9.055,9.055,0,0,1,.624,7.583,7.405,7.405,0,0,0,5.509-10.416Zm-6.133-5.229a9.523,9.523,0,0,1,6.133,2.833,7.405,7.405,0,0,0-5.509-10.416,9.055,9.055,0,0,1-.624,7.583Zm-3.647,2.222a7.812,7.812,0,0,0,.988-.779,8.932,8.932,0,0,0-1.4.358l.049.091Zm2.2-2.21a7.767,7.767,0,0,0,.474-7.682,7.4,7.4,0,0,0-6.116,3.866l2.507,4.634A9.466,9.466,0,0,1,223.934,252.829Zm-3.2,4.019v.789l.852-.789-.852-.789Zm1.87-1.022.749.678,0,.344v.335l-.753.687a9.062,9.062,0,0,1,1.861,1.69,8.992,8.992,0,0,0,6.187-2.712,8.989,8.989,0,0,0-6.187-2.713A9.068,9.068,0,0,1,222.607,255.825Zm10.255,1.624a3.472,3.472,0,0,1,.6-.6,3.471,3.471,0,0,1-.6-.6q-.141.309-.305.6C232.666,257.042,232.767,257.244,232.862,257.45Zm-29.421-1.8a9.526,9.526,0,0,1,6.133-2.833,9.057,9.057,0,0,1-.624-7.583,7.406,7.406,0,0,0-5.509,10.416Zm9.78-.611.366-.33.049-.091a8.945,8.945,0,0,0-1.4-.358A7.793,7.793,0,0,0,213.221,255.038Zm-3.468-6.464a7.713,7.713,0,0,0,1.268,4.253,9.463,9.463,0,0,1,3.139.819l2.506-4.64a7.408,7.408,0,0,0-6.116-3.86A7.724,7.724,0,0,0,209.753,248.574Zm7.562,4.89.164,0h.158l2.011,1.079-2.169-3.937-2.169,3.937Zm-5.781-9.878.4.271a8.868,8.868,0,0,1,5.544,3.676,8.867,8.867,0,0,1,5.544-3.676l.4-.271a7.539,7.539,0,0,0-5.882-2.815h-.126A7.538,7.538,0,0,0,211.534,243.587Zm-1.96,17.292a9.526,9.526,0,0,1-6.133-2.833,7.406,7.406,0,0,0,5.509,10.416,9.057,9.057,0,0,1,.624-7.583Zm3.647-2.222a7.794,7.794,0,0,0-.988.779,8.939,8.939,0,0,0,1.4-.358l-.049-.091Zm-2.2,2.21a7.767,7.767,0,0,0-.474,7.682,7.4,7.4,0,0,0,6.116-3.866l-2.506-4.634A9.466,9.466,0,0,1,211.023,260.866Zm14.156,10.824-.031-.045c-.023-.035-.06-.086-.11-.151a4.661,4.661,0,0,0-.46-.507,8.988,8.988,0,0,1-7.037,3.387h-.125a8.987,8.987,0,0,1-7.037-3.387,4.669,4.669,0,0,0-.461.507,2.359,2.359,0,0,0-.141.2,1.312,1.312,0,0,1,.138.592,1.36,1.36,0,1,1-1.777-1.293,1.96,1.96,0,0,0-.489-1.148c-.124-.107-.256-.238-.307-.288a8.879,8.879,0,0,1-5.911-10c-.019-.078-.093-.381-.108-.494a2.236,2.236,0,0,0-.8-1.13,1.354,1.354,0,1,1,0-2.168,2.237,2.237,0,0,0,.8-1.131c.015-.114.089-.417.108-.494a8.879,8.879,0,0,1,5.911-10c.05-.05.182-.18.307-.288a1.959,1.959,0,0,0,.489-1.148,1.357,1.357,0,1,1,1.64-.7l.031.045c.024.035.06.086.11.151a4.668,4.668,0,0,0,.461.508,8.986,8.986,0,0,1,7.037-3.387h.125a8.987,8.987,0,0,1,7.037,3.387,4.64,4.64,0,0,0,.46-.508,2.292,2.292,0,0,0,.141-.2,1.312,1.312,0,0,1-.138-.591,1.36,1.36,0,1,1,1.777,1.293,1.959,1.959,0,0,0,.489,1.148c.125.107.256.238.307.288a8.879,8.879,0,0,1,5.911,10c.019.078.093.381.108.494a2.235,2.235,0,0,0,.8,1.131,1.353,1.353,0,1,1,0,2.168,2.235,2.235,0,0,0-.8,1.13c-.016.114-.089.417-.108.494a8.879,8.879,0,0,1-5.911,10c-.051.05-.182.18-.307.288a1.96,1.96,0,0,0-.489,1.148,1.357,1.357,0,1,1-1.64.7Zm-13.645-1.582a7.538,7.538,0,0,0,5.882,2.815h.126a7.538,7.538,0,0,0,5.882-2.815l-.4-.271a8.869,8.869,0,0,1-5.544-3.676,8.869,8.869,0,0,1-5.544,3.676Zm3.775-10.956,2.169,3.937,2.169-3.937-2.005,1.078-.164,0h-.158Zm2.172-.492,1.8-.971,0-.841,0-.841-1.807-.971-1.8.971,0,.841,0,.841Zm-3.261-1.812v-.789l-.852.789.852.789Zm-1.87,1.022-.749-.678-.005-.344v-.335l.753-.687a9.065,9.065,0,0,1-1.861-1.69,8.991,8.991,0,0,0-6.187,2.712,8.988,8.988,0,0,0,6.187,2.713A9.059,9.059,0,0,1,212.351,257.87ZM202.1,256.245a3.478,3.478,0,0,1-.6.6,3.479,3.479,0,0,1,.6.6q.142-.309.305-.6C202.292,256.653,202.19,256.451,202.1,256.245Z" transform="translate(-169.99 -229.823)" fill="#8b734a"/>
</svg>
