<svg id="Group_96" data-name="Group 96" xmlns="http://www.w3.org/2000/svg" width="94.734" height="94.735" viewBox="0 0 94.734 94.735">
  <g id="Group_92" data-name="Group 92" transform="translate(0)">
    <rect id="Rectangle_38" data-name="Rectangle 38" width="94.734" height="94.735" fill="#8b734a"/>
  </g>
  <rect id="Rectangle_39" data-name="Rectangle 39" width="87.689" height="87.689" transform="translate(3.523 3.523)" fill="#86212e"/>
  <g id="Group_93" data-name="Group 93" transform="translate(31.171 79.143)">
    <path id="Path_10" data-name="Path 10" d="M239.042,568.164l2.138-5.425h.345l2.341,5.725a.538.538,0,0,0,.309.345,2.543,2.543,0,0,0,.477.044v.4H241.94v-.4a7.391,7.391,0,0,0,.742-.053.178.178,0,0,0,.185-.194.417.417,0,0,0-.035-.15l-.521-1.281h-2.385q-.141.353-.265.716a1.682,1.682,0,0,0-.106.46.43.43,0,0,0,.318.433,2.076,2.076,0,0,0,.583.071v.4h-2.332v-.4A.951.951,0,0,0,239.042,568.164Zm1.052-1.44h2.049l-1.043-2.6Z" transform="translate(-238.123 -562.739)" fill="#fff" fill-rule="evenodd"/>
    <path id="Path_11" data-name="Path 11" d="M272.709,563.2v-.371l1.634-.089v5.9a.519.519,0,0,0,.027.2.217.217,0,0,0,.124.08,3.391,3.391,0,0,0,.406.018h.177v.309h-2.288v-.309a4.682,4.682,0,0,0,.583-.027.277.277,0,0,0,.141-.133,2.384,2.384,0,0,0,.018-.38V563.57a.46.46,0,0,0-.08-.283.927.927,0,0,0-.512-.089Z" transform="translate(-265.07 -562.739)" fill="#fff" fill-rule="evenodd"/>
    <path id="Path_12" data-name="Path 12" d="M292.289,569.906h-2.324V569.6h.239a2.077,2.077,0,0,0,.459-.071,1.687,1.687,0,0,0,.071-.61v-2.032a1.82,1.82,0,0,0-.044-.495.471.471,0,0,0-.265-.106l-.53-.018v-.371l1.652-.088V569.2a1.13,1.13,0,0,0,.018.283q.035.088.239.1a4.383,4.383,0,0,0,.486.018Zm-.671-5.8a.487.487,0,0,1-.168.362.5.5,0,0,1-.362.159.48.48,0,0,1-.362-.159.554.554,0,0,1-.15-.38.471.471,0,0,1,.159-.353.513.513,0,0,1,.362-.15.544.544,0,0,1,.521.521Z" transform="translate(-278.46 -563.394)" fill="#fff" fill-rule="evenodd"/>
    <path id="Path_13" data-name="Path 13" d="M307.482,577.292v-.309h.221a1.931,1.931,0,0,0,.433-.071q.071-.035.071-.176V574.27a1.831,1.831,0,0,0-.044-.495q-.027-.062-.23-.106l-.451-.018v-.371l1.52-.088v.751a1.554,1.554,0,0,1,1.369-.883,1.482,1.482,0,0,1,.7.176,1.28,1.28,0,0,1,.592.707,2.532,2.532,0,0,1,.115.839v1.9a.369.369,0,0,0,.009.062v.071a.147.147,0,0,0,.15.141q.132.009.389.018l.159.009v.309h-2.235v-.309l.442-.018a.3.3,0,0,0,.212-.071.874.874,0,0,1,.053-.088.745.745,0,0,0,.009-.133v-1.917a4.079,4.079,0,0,0-.044-.592.581.581,0,0,0-.274-.415.9.9,0,0,0-.53-.168,1,1,0,0,0-.91.583,2.158,2.158,0,0,0-.186,1.025v1.475q0,.018.009.15t.23.15q.15.008.309.009l.168.009v.309Z" transform="translate(-292.162 -570.78)" fill="#fff" fill-rule="evenodd"/>
    <path id="Path_14" data-name="Path 14" d="M340.175,565.7v-2.147a.429.429,0,0,0-.079-.265.8.8,0,0,0-.424-.08q-.062,0-.195-.009h-.2v-.371l1.714-.089v5.681q0,.3.115.38a1.083,1.083,0,0,0,.424.071l.176.009v.371l-1.528.088v-.769a1.9,1.9,0,0,1-.168.291,1.135,1.135,0,0,1-1.051.521,1.681,1.681,0,0,1-1.325-.663,2.224,2.224,0,0,1-.442-1.467,2.474,2.474,0,0,1,.442-1.52,1.587,1.587,0,0,1,1.317-.715A1.337,1.337,0,0,1,340.175,565.7Zm-1.06,3.216h.009a.889.889,0,0,0,.839-.574,2.551,2.551,0,0,0,.212-1.1,2.625,2.625,0,0,0-.2-1.175.923.923,0,0,0-.839-.574.885.885,0,0,0-.848.61,3.438,3.438,0,0,0-.009,2.253A.878.878,0,0,0,339.115,568.915Z" transform="translate(-315.308 -562.739)" fill="#fff" fill-rule="evenodd"/>
    <path id="Path_15" data-name="Path 15" d="M368.411,574.535l-.026,1.529c0,.136,0,.262.009.38a.4.4,0,0,0,.177.362.3.3,0,0,0,.292.044q.088-.035.247-.089a.128.128,0,0,1,.115.132.623.623,0,0,1-.309.345.941.941,0,0,1-.477.132.767.767,0,0,1-.786-.654,1.951,1.951,0,0,1-1.59.707,1.415,1.415,0,0,1-.874-.247.937.937,0,0,1-.371-.8q0-1.219,2.792-1.617a4.616,4.616,0,0,0-.009-.627q-.035-.672-.945-.672a1.153,1.153,0,0,0-.76.185q-.106.1,0,.257a1.046,1.046,0,0,1,.133.362q0,.433-.495.433-.468,0-.469-.557,0-.583.769-.9a2.463,2.463,0,0,1,.954-.176,2.531,2.531,0,0,1,.848.123,1.109,1.109,0,0,1,.663.512A2.031,2.031,0,0,1,368.411,574.535Zm-.8.574a8.858,8.858,0,0,0-1.228.283.949.949,0,0,0-.7.9.651.651,0,0,0,.212.5.8.8,0,0,0,.53.186,1.183,1.183,0,0,0,.972-.5.948.948,0,0,0,.194-.468q.009-.088.018-.512Z" transform="translate(-336.832 -570.78)" fill="#fff" fill-rule="evenodd"/>
  </g>
  <g id="Group_95" data-name="Group 95" transform="translate(16.299 51.282)">
    <g id="Group_94" data-name="Group 94" transform="translate(0 20.052)">
      <rect id="Rectangle_40" data-name="Rectangle 40" width="15.887" height="0.615" fill="#8b734a"/>
      <rect id="Rectangle_41" data-name="Rectangle 41" width="15.887" height="0.615" transform="translate(46.25)" fill="#8b734a"/>
    </g>
    <path id="Path_16" data-name="Path 16" d="M238.432,441.65h.959l-.5-2.062ZM237.3,446.92q-.1.507-.148.807a3.489,3.489,0,0,0-.047.6c0,.315.074.457.16.514a1.917,1.917,0,0,0,.688.2h.586v.624H235.4v-.624h.7l2.555-12.438h.535l2.849,10.38q.115.432.246.884a5.689,5.689,0,0,0,.287.729.853.853,0,0,0,.271.334,1.413,1.413,0,0,0,.461.118l.092.012v.606h-2.907v-.624h.959L239.7,442.7h-1.466Zm-44.716-5.271h.959l-.5-2.062Zm-1.134,5.271q-.1.507-.148.807a3.483,3.483,0,0,0-.048.6c0,.315.074.457.16.514a1.919,1.919,0,0,0,.688.2h.585v.624H189.55v-.624h.7l2.555-12.438h.535l2.849,10.38q.115.432.246.884a5.669,5.669,0,0,0,.287.729.853.853,0,0,0,.271.334,1.412,1.412,0,0,0,.461.118l.092.012v.606h-2.907v-.624h.959l-1.749-6.336h-1.466Zm16.918-9.052h-.923v4.191l1.979-3.159c.118-.185.228-.373.325-.558a.887.887,0,0,0,.146-.361c0-.066-.018-.072-.049-.079a1.825,1.825,0,0,0-.409-.034h-.382v-.624h3.154v.624h-1.124l-2.66,4.067,2.861,5.584a4.552,4.552,0,0,0,.766,1.214,1.286,1.286,0,0,0,.5.254,3.211,3.211,0,0,0,.629.053h.151v.624H209.91v-.624h.8l-2.907-6.133-.361.607v4.847c0,.361.078.517.161.571a1.726,1.726,0,0,0,.742.108h.151v.624h-3.154v-.624h.923V438.548c0-.364-.085-.508-.159-.55a1.5,1.5,0,0,0-.745-.129h-.151v-.624h3.154Zm15.415,0h-.923v4.191l1.979-3.159c.118-.185.228-.373.325-.558a.887.887,0,0,0,.146-.361c0-.066-.018-.072-.049-.079a1.825,1.825,0,0,0-.41-.034h-.382v-.624h3.154v.624H226.5l-2.66,4.067,2.861,5.584a4.553,4.553,0,0,0,.766,1.214,1.285,1.285,0,0,0,.5.254,3.21,3.21,0,0,0,.629.053h.151v.624h-3.418v-.624h.8l-2.907-6.133-.361.607v4.847c0,.361.078.517.161.571a1.726,1.726,0,0,0,.742.108h.152v.624H220.76v-.624h.923V438.548c0-.364-.084-.508-.159-.55a1.5,1.5,0,0,0-.745-.129h-.151v-.624h3.154Z" transform="translate(-185.407 -436.603)" fill="#fff" fill-rule="evenodd"/>
    <path id="Path_17" data-name="Path 17" d="M257.538,521.238c.036.037.105.055.254.055h.129v.38h-1.334v-.38h.348v-3.884a.393.393,0,0,0-.015-.125c-.033-.035-.106-.058-.253-.058h-.129v-.379h1.334v.38h-.348v.88h1.015v-.7a.4.4,0,0,0-.015-.125c-.033-.035-.106-.058-.253-.058h-.129v-.379h1.334v.38h-.348v3.885a.434.434,0,0,0,.015.128c.036.037.105.055.254.055h.129v.38h-1.334v-.38h.348v-2.773h-1.015v2.589A.436.436,0,0,0,257.538,521.238Zm7.246-3.8a2.513,2.513,0,0,1,.675,1.8,2.562,2.562,0,0,1-.713,1.833,2.24,2.24,0,0,1-1.672.745,2.139,2.139,0,0,1-1.624-.725,2.729,2.729,0,0,1,.038-3.622,2.25,2.25,0,0,1,1.678-.752A2.132,2.132,0,0,1,264.784,517.435Zm-2.9,3.3a1.565,1.565,0,0,0,1.272.641,1.5,1.5,0,0,0,1.205-.6,2.2,2.2,0,0,0,.5-1.448,2.338,2.338,0,0,0-.542-1.541,1.589,1.589,0,0,0-1.28-.65,1.471,1.471,0,0,0-1.186.593,2.217,2.217,0,0,0-.493,1.449A2.426,2.426,0,0,0,261.889,520.738Zm6.941-2.346q0-.341-.024-.578c-.021-.21-.109-.469-.283-.542a1.083,1.083,0,0,0-.336-.045v3.811a.527.527,0,0,0,.033.228.777.777,0,0,0,.223.027h.266v.38h-1.458v-.38h.348v-4.066a1.129,1.129,0,0,0-.338.046c-.179.074-.25.338-.274.557a4.894,4.894,0,0,0-.03.562v.279h-.364v-2.045h.364v.221h1.873v-.221h.364v2.045h-.364Zm3.341,2.536a1.657,1.657,0,0,0,.051-.443v-.464h.364v1.938h-.364v-.285h-1.877v-.38h.373v-3.884a.386.386,0,0,0-.016-.125c-.033-.035-.106-.058-.253-.058h-.129v-.379h1.9v-.285h.364v1.8h-.364v-.364a1.8,1.8,0,0,0-.039-.424.335.335,0,0,0-.136-.2.656.656,0,0,0-.3-.105,2.56,2.56,0,0,0-.41-.034l-.026.866h.263v-.69h.364v1.945h-.364v-.307a1.008,1.008,0,0,0-.076-.424.183.183,0,0,0-.162-.1l-.025,2.782C271.69,521.294,272.084,521.26,272.171,520.927Zm3.509,0a1.732,1.732,0,0,0,.034-.377v-1.09h.364v2.5h-.364v-.285h-1.765v-.38h.36v-3.884a.394.394,0,0,0-.015-.125c-.033-.035-.106-.058-.253-.058h-.129v-.379h1.334v.38H274.9v4.068a2.78,2.78,0,0,0,.37-.026A.522.522,0,0,0,275.68,520.925Zm3.7-1.731.03.059a.777.777,0,0,1,.087.349.758.758,0,0,1-.15.47.506.506,0,0,1-.42.208.576.576,0,0,1-.241-.056l-.047-.019.06-.325.04-.009c.086-.02.121-.037.155-.09a.29.29,0,0,0,.053-.17.449.449,0,0,0-.417-.461.5.5,0,0,0-.455.279,1.326,1.326,0,0,0-.186.708,1.168,1.168,0,0,0,1.114,1.237,1.109,1.109,0,0,0,.793-.327,1.1,1.1,0,0,0,.345-.838.768.768,0,0,0-.217-.578A3.473,3.473,0,0,0,279.385,519.193Zm.152-1.615a.954.954,0,0,0-.1-.292c-.038-.082-.118-.139-.293-.139a.456.456,0,0,0-.418.5.608.608,0,0,0,.178.492,7.009,7.009,0,0,0,.669.466,4.647,4.647,0,0,1,.786.6,1.24,1.24,0,0,1,.337.925,1.546,1.546,0,0,1-.535,1.222,1.763,1.763,0,0,1-1.2.459,1.613,1.613,0,0,1-1.139-.448,1.679,1.679,0,0,1-.143-2.19,1.1,1.1,0,0,1,.884-.44,1.135,1.135,0,0,1,.173.013,2.316,2.316,0,0,1-.243-.222,1.1,1.1,0,0,1-.246-.771,1.019,1.019,0,0,1,.292-.746.959.959,0,0,1,.7-.294.717.717,0,0,1,.211.027c.024.007.055.017.095.032v-.209h.364v2.024h-.364v-.67Q279.548,517.7,279.537,517.579Z" transform="translate(-237.598 -498.9)" fill="#fff" fill-rule="evenodd"/>
  </g>
  <path id="Path_18" data-name="Path 18" d="M251.866,273.055a7.7,7.7,0,0,0-1.264-4.242,9.437,9.437,0,0,1-3.131-.817l-2.5,4.628a7.388,7.388,0,0,0,6.1,3.851A7.707,7.707,0,0,0,251.866,273.055Zm-3.459-6.447-.364.329-.049.091a8.9,8.9,0,0,0,1.4.357A7.762,7.762,0,0,0,248.407,266.607Zm9.755-.61a9.5,9.5,0,0,1-6.117,2.826,9.034,9.034,0,0,1,.623,7.563A7.387,7.387,0,0,0,258.162,266Zm-6.117-5.215a9.5,9.5,0,0,1,6.117,2.826,7.387,7.387,0,0,0-5.494-10.389,9.034,9.034,0,0,1-.623,7.563ZM248.407,263a7.756,7.756,0,0,0,.986-.777,8.918,8.918,0,0,0-1.4.357l.049.091Zm2.192-2.2a7.747,7.747,0,0,0,.472-7.663,7.381,7.381,0,0,0-6.1,3.856l2.5,4.622A9.441,9.441,0,0,1,250.6,260.794ZM247.41,264.8v.787l.85-.787-.85-.787Zm1.865-1.02.747.677.005.343v.334l-.751.686a9.029,9.029,0,0,1,1.856,1.686,8.968,8.968,0,0,0,6.171-2.7,8.965,8.965,0,0,0-6.171-2.706A9.034,9.034,0,0,1,249.275,263.783ZM259.5,265.4a3.463,3.463,0,0,1,.6-.6,3.463,3.463,0,0,1-.6-.6q-.141.308-.3.6C259.308,265,259.41,265.2,259.5,265.4Zm-29.346-1.8a9.5,9.5,0,0,1,6.117-2.826,9.032,9.032,0,0,1-.623-7.563,7.387,7.387,0,0,0-5.495,10.389Zm9.755-.61.364-.329.049-.091a8.911,8.911,0,0,0-1.4-.357A7.773,7.773,0,0,0,239.913,263Zm-3.459-6.447a7.693,7.693,0,0,0,1.264,4.242,9.437,9.437,0,0,1,3.131.817l2.5-4.628a7.389,7.389,0,0,0-6.1-3.85A7.7,7.7,0,0,0,236.454,256.551ZM244,261.429l.164,0h.157l2.006,1.076-2.163-3.927L242,262.5Zm-5.766-9.853.4.27a8.846,8.846,0,0,1,5.53,3.666,8.844,8.844,0,0,1,5.53-3.666l.4-.27a7.519,7.519,0,0,0-5.867-2.807H244.1A7.519,7.519,0,0,0,238.231,251.576Zm-1.955,17.247A9.5,9.5,0,0,1,230.158,266a7.387,7.387,0,0,0,5.495,10.389,9.032,9.032,0,0,1,.623-7.563Zm3.638-2.216a7.779,7.779,0,0,0-.986.777,8.9,8.9,0,0,0,1.4-.357l-.049-.091Zm-2.192,2.2a7.749,7.749,0,0,0-.472,7.663,7.381,7.381,0,0,0,6.1-3.856l-2.5-4.622A9.439,9.439,0,0,1,237.721,268.811Zm14.12,10.8-.03-.045c-.024-.034-.06-.086-.109-.15a4.672,4.672,0,0,0-.459-.506,8.964,8.964,0,0,1-7.019,3.378H244.1a8.965,8.965,0,0,1-7.019-3.378,4.645,4.645,0,0,0-.459.506,2.377,2.377,0,0,0-.141.2,1.307,1.307,0,0,1,.137.59,1.356,1.356,0,1,1-1.772-1.289,1.957,1.957,0,0,0-.487-1.145c-.124-.107-.256-.237-.306-.287a8.856,8.856,0,0,1-5.9-9.975c-.019-.078-.093-.38-.108-.493a2.229,2.229,0,0,0-.8-1.128,1.35,1.35,0,1,1,0-2.162,2.23,2.23,0,0,0,.8-1.128c.015-.113.089-.415.108-.493a8.856,8.856,0,0,1,5.9-9.975c.05-.05.182-.18.306-.287a1.956,1.956,0,0,0,.487-1.145,1.354,1.354,0,1,1,1.636-.695l.03.045c.024.035.06.086.11.15a4.67,4.67,0,0,0,.459.506,8.964,8.964,0,0,1,7.019-3.378h.125a8.964,8.964,0,0,1,7.019,3.378,4.653,4.653,0,0,0,.459-.506,2.336,2.336,0,0,0,.14-.2,1.309,1.309,0,0,1-.137-.59,1.356,1.356,0,1,1,1.772,1.289,1.954,1.954,0,0,0,.487,1.145c.124.107.256.237.306.287a8.856,8.856,0,0,1,5.9,9.975c.019.078.093.38.108.493a2.231,2.231,0,0,0,.8,1.128,1.35,1.35,0,1,1,0,2.162,2.231,2.231,0,0,0-.8,1.128c-.015.114-.089.416-.108.493a8.856,8.856,0,0,1-5.9,9.975c-.05.05-.182.18-.306.287a1.955,1.955,0,0,0-.487,1.145,1.354,1.354,0,1,1-1.636.695Zm-13.611-1.578a7.519,7.519,0,0,0,5.867,2.807h.125a7.518,7.518,0,0,0,5.867-2.807l-.4-.27a8.846,8.846,0,0,1-5.53-3.666,8.847,8.847,0,0,1-5.53,3.666ZM242,267.1l2.164,3.927,2.163-3.927-2,1.075-.163,0H244Zm2.167-.491,1.8-.969,0-.839,0-.839-1.8-.969-1.8.969,0,.839,0,.839ZM240.91,264.8v-.787l-.85.787.85.787Zm-1.865,1.02-.747-.677,0-.343v-.334l.751-.685a9.047,9.047,0,0,1-1.856-1.685,8.969,8.969,0,0,0-6.171,2.7,8.966,8.966,0,0,0,6.171,2.706A9.042,9.042,0,0,1,239.045,265.822Zm-10.229-1.62a3.471,3.471,0,0,1-.6.6,3.471,3.471,0,0,1,.6.6q.141-.308.3-.6C229.012,264.609,228.91,264.407,228.816,264.2Z" transform="translate(-196.793 -237.847)" fill="#8b734a"/>
</svg>
