<svg xmlns="http://www.w3.org/2000/svg" width="94.977" height="94.977" viewBox="0 0 94.977 94.977">
  <g id="Group_101" data-name="Group 101" transform="translate(0)">
    <rect id="Rectangle_46" data-name="Rectangle 46" width="94.977" height="94.977" transform="translate(0 0)" fill="#8b734a"/>
    <rect id="Rectangle_47" data-name="Rectangle 47" width="87.913" height="87.913" transform="translate(3.532 3.532)" fill="#fff"/>
    <rect id="Rectangle_48" data-name="Rectangle 48" width="15.927" height="0.616" transform="translate(16.341 71.516)" fill="#8b734a"/>
    <rect id="Rectangle_49" data-name="Rectangle 49" width="15.927" height="0.616" transform="translate(62.709 71.516)" fill="#8b734a"/>
    <path id="Path_29" data-name="Path 29" d="M209.288,441.663h.961l-.5-2.067Zm-1.137,5.284q-.1.508-.148.809a3.5,3.5,0,0,0-.048.6c0,.316.074.458.161.515a1.923,1.923,0,0,0,.69.2h.587v.625h-3.146v-.625h.706l2.561-12.47h.537l2.856,10.406q.115.433.247.886a5.674,5.674,0,0,0,.287.731.855.855,0,0,0,.272.335,1.412,1.412,0,0,0,.461.118l.093.012v.607h-2.914v-.625h.961l-1.753-6.352h-1.47Zm-44.83-5.284h.961l-.5-2.067Zm-1.137,5.284q-.1.508-.148.809a3.52,3.52,0,0,0-.047.6c0,.316.074.458.161.515a1.922,1.922,0,0,0,.69.2h.587v.625h-3.146v-.625h.706l2.561-12.47h.537l2.856,10.406q.115.433.247.886a5.706,5.706,0,0,0,.287.731.855.855,0,0,0,.272.335,1.411,1.411,0,0,0,.461.118l.093.012v.607h-2.914v-.625h.961l-1.753-6.352h-1.47Zm16.961-9.075h-.925v4.2l1.984-3.167c.119-.185.229-.374.326-.56a.888.888,0,0,0,.146-.362c0-.066-.018-.072-.049-.079a1.826,1.826,0,0,0-.41-.034h-.383v-.625H183v.625h-1.127l-2.666,4.077,2.868,5.6a4.563,4.563,0,0,0,.768,1.217,1.287,1.287,0,0,0,.5.254,3.218,3.218,0,0,0,.63.053h.152v.625h-3.427v-.625h.8l-2.915-6.148-.362.609v4.859c0,.362.079.518.162.572a1.73,1.73,0,0,0,.744.108h.152v.625h-3.162v-.625h.925v-10.52c0-.365-.085-.509-.159-.552a1.5,1.5,0,0,0-.747-.129h-.152v-.625h3.162Zm15.455,0h-.925v4.2l1.984-3.167c.118-.185.229-.374.326-.56a.888.888,0,0,0,.146-.362c0-.066-.018-.072-.049-.079a1.827,1.827,0,0,0-.41-.034h-.383v-.625h3.162v.625h-1.127l-2.666,4.077,2.868,5.6a4.563,4.563,0,0,0,.768,1.217,1.287,1.287,0,0,0,.5.254,3.218,3.218,0,0,0,.63.053h.152v.625h-3.427v-.625h.8l-2.915-6.148-.362.609v4.859c0,.362.079.518.162.572a1.73,1.73,0,0,0,.744.108h.152v.625H191.57v-.625h.925v-10.52c0-.365-.085-.509-.159-.552a1.5,1.5,0,0,0-.747-.129h-.152v-.625H194.6Z" transform="translate(-139.786 -385.19)" fill="#8b734a" fill-rule="evenodd"/>
    <path id="Path_30" data-name="Path 30" d="M228.272,521.25c.036.037.106.055.255.055h.13v.381h-1.338v-.381h.349v-3.894a.389.389,0,0,0-.016-.126c-.033-.036-.107-.058-.254-.058h-.13v-.38h1.337v.381h-.349v.882h1.018v-.7a.4.4,0,0,0-.015-.126c-.033-.036-.107-.058-.254-.058h-.13v-.38h1.337v.381h-.349v3.894a.434.434,0,0,0,.015.129c.036.037.105.055.254.055h.13v.381h-1.337v-.381h.349v-2.78h-1.018v2.6A.436.436,0,0,0,228.272,521.25Zm7.265-3.813a2.519,2.519,0,0,1,.677,1.8,2.57,2.57,0,0,1-.715,1.838,2.246,2.246,0,0,1-1.677.747,2.145,2.145,0,0,1-1.628-.727,2.736,2.736,0,0,1,.039-3.631,2.256,2.256,0,0,1,1.683-.754A2.137,2.137,0,0,1,235.536,517.437Zm-2.9,3.311a1.569,1.569,0,0,0,1.275.643,1.509,1.509,0,0,0,1.208-.6,2.206,2.206,0,0,0,.506-1.451,2.344,2.344,0,0,0-.544-1.545,1.594,1.594,0,0,0-1.283-.652,1.474,1.474,0,0,0-1.189.594,2.222,2.222,0,0,0-.494,1.452A2.433,2.433,0,0,0,232.633,520.748Zm6.958-2.352q0-.342-.024-.579c-.021-.21-.109-.471-.283-.543a1.083,1.083,0,0,0-.337-.045v3.821a.532.532,0,0,0,.033.228.777.777,0,0,0,.224.027h.267v.381h-1.462v-.381h.349v-4.077a1.129,1.129,0,0,0-.339.046c-.18.075-.251.339-.275.558a4.959,4.959,0,0,0-.03.563v.28h-.365v-2.05h.365v.221h1.878v-.221h.365v2.05h-.365Zm3.35,2.542a1.671,1.671,0,0,0,.052-.444v-.465h.365v1.943h-.365v-.285h-1.882v-.381h.374v-3.894a.394.394,0,0,0-.016-.126c-.033-.035-.107-.058-.254-.058h-.13v-.38h1.907v-.285h.365v1.8h-.365V518a1.785,1.785,0,0,0-.04-.425.335.335,0,0,0-.136-.2.661.661,0,0,0-.3-.106,2.575,2.575,0,0,0-.411-.034l-.026.868h.264V517.4h.365v1.951h-.365v-.308a1.01,1.01,0,0,0-.076-.425.184.184,0,0,0-.163-.1l-.025,2.789C242.46,521.306,242.855,521.272,242.942,520.938Zm3.518,0a1.739,1.739,0,0,0,.034-.378v-1.093h.365v2.507h-.365v-.285h-1.769v-.381h.361v-3.894a.389.389,0,0,0-.015-.126c-.033-.036-.106-.058-.254-.058h-.13v-.38h1.337v.381h-.349v4.078a2.752,2.752,0,0,0,.371-.026A.524.524,0,0,0,246.46,520.936Zm3.714-1.736.03.059a.776.776,0,0,1,.088.349.76.76,0,0,1-.151.471.507.507,0,0,1-.421.208.578.578,0,0,1-.242-.056l-.047-.019.06-.326.04-.009a.2.2,0,0,0,.155-.091.292.292,0,0,0,.053-.17.45.45,0,0,0-.419-.463.506.506,0,0,0-.456.28,1.332,1.332,0,0,0-.187.71,1.171,1.171,0,0,0,1.116,1.24,1.112,1.112,0,0,0,.8-.328,1.1,1.1,0,0,0,.346-.841.771.771,0,0,0-.217-.579A3.483,3.483,0,0,0,250.174,519.2Zm.152-1.619a.959.959,0,0,0-.1-.293c-.038-.082-.118-.14-.294-.14a.457.457,0,0,0-.419.5.61.61,0,0,0,.178.493,7.068,7.068,0,0,0,.671.467,4.647,4.647,0,0,1,.788.6,1.242,1.242,0,0,1,.338.927,1.55,1.55,0,0,1-.536,1.225,1.767,1.767,0,0,1-1.2.46,1.618,1.618,0,0,1-1.142-.449,1.683,1.683,0,0,1-.143-2.2,1.1,1.1,0,0,1,.886-.441,1.131,1.131,0,0,1,.174.013,2.314,2.314,0,0,1-.244-.223,1.1,1.1,0,0,1-.246-.773,1.021,1.021,0,0,1,.293-.748.96.96,0,0,1,.7-.295.715.715,0,0,1,.211.027c.024.007.055.018.095.032v-.209h.365v2.029h-.365v-.672C250.338,517.771,250.334,517.659,250.326,517.581Z" transform="translate(-191.94 -447.442)" fill="#8b734a" fill-rule="evenodd"/>
    <path id="Path_31" data-name="Path 31" d="M222.665,273.121a7.714,7.714,0,0,0-1.267-4.253,9.458,9.458,0,0,1-3.139-.819l-2.506,4.64a7.408,7.408,0,0,0,6.116,3.86A7.723,7.723,0,0,0,222.665,273.121Zm-3.468-6.464-.365.33-.049.091a8.926,8.926,0,0,0,1.4.358A7.806,7.806,0,0,0,219.2,266.657Zm9.78-.611a9.524,9.524,0,0,1-6.133,2.833,9.055,9.055,0,0,1,.624,7.583,7.406,7.406,0,0,0,5.509-10.416Zm-6.133-5.228a9.523,9.523,0,0,1,6.133,2.833,7.406,7.406,0,0,0-5.509-10.416,9.055,9.055,0,0,1-.624,7.583Zm-3.647,2.222a7.816,7.816,0,0,0,.988-.779,8.922,8.922,0,0,0-1.4.358l.049.091Zm2.2-2.21a7.767,7.767,0,0,0,.474-7.682,7.4,7.4,0,0,0-6.116,3.866l2.506,4.634A9.467,9.467,0,0,1,221.4,260.829Zm-3.2,4.019v.789l.852-.789-.852-.789Zm1.87-1.022.749.678,0,.344v.335l-.753.687a9.063,9.063,0,0,1,1.861,1.69,8.992,8.992,0,0,0,6.187-2.712,8.989,8.989,0,0,0-6.187-2.713A9.07,9.07,0,0,1,220.068,263.825Zm10.255,1.625a3.473,3.473,0,0,1,.6-.6,3.47,3.47,0,0,1-.6-.6q-.141.309-.305.6C230.126,265.042,230.228,265.244,230.323,265.45Zm-29.421-1.8a9.526,9.526,0,0,1,6.133-2.833,9.057,9.057,0,0,1-.624-7.583A7.406,7.406,0,0,0,200.9,263.65Zm9.78-.611.365-.33.049-.091a8.929,8.929,0,0,0-1.4-.358A7.786,7.786,0,0,0,210.682,263.038Zm-3.468-6.464a7.713,7.713,0,0,0,1.268,4.253,9.462,9.462,0,0,1,3.139.819l2.506-4.64a7.408,7.408,0,0,0-6.116-3.86A7.724,7.724,0,0,0,207.214,256.574Zm7.562,4.89.164,0h.158l2.011,1.079-2.169-3.937-2.169,3.937ZM209,251.587l.4.271a8.869,8.869,0,0,1,5.544,3.676,8.867,8.867,0,0,1,5.544-3.676l.4-.271A7.539,7.539,0,0,0,215,248.772h-.126A7.538,7.538,0,0,0,209,251.587Zm-1.96,17.291a9.525,9.525,0,0,1-6.133-2.833,7.406,7.406,0,0,0,5.509,10.416,9.057,9.057,0,0,1,.624-7.583Zm3.647-2.221a7.791,7.791,0,0,0-.988.779,8.94,8.94,0,0,0,1.4-.358l-.049-.091Zm-2.2,2.21a7.767,7.767,0,0,0-.474,7.682,7.4,7.4,0,0,0,6.116-3.866l-2.506-4.634A9.465,9.465,0,0,1,208.484,268.866ZM222.64,279.69l-.031-.045c-.024-.035-.06-.086-.11-.151a4.66,4.66,0,0,0-.46-.507A8.988,8.988,0,0,1,215,282.374h-.125a8.987,8.987,0,0,1-7.037-3.387,4.687,4.687,0,0,0-.461.507,2.341,2.341,0,0,0-.141.2,1.313,1.313,0,0,1,.138.592,1.36,1.36,0,1,1-1.777-1.293,1.96,1.96,0,0,0-.489-1.148c-.124-.107-.256-.238-.307-.288a8.879,8.879,0,0,1-5.91-10c-.019-.078-.093-.381-.108-.495a2.236,2.236,0,0,0-.8-1.13,1.354,1.354,0,1,1,0-2.168,2.237,2.237,0,0,0,.8-1.131c.016-.114.089-.417.108-.494a8.879,8.879,0,0,1,5.91-10c.05-.05.182-.18.307-.288a1.959,1.959,0,0,0,.489-1.148,1.357,1.357,0,1,1,1.64-.7l.031.045c.024.035.06.086.11.151a4.668,4.668,0,0,0,.461.508,8.987,8.987,0,0,1,7.037-3.387H215a8.987,8.987,0,0,1,7.037,3.387,4.644,4.644,0,0,0,.46-.508,2.381,2.381,0,0,0,.141-.2,1.309,1.309,0,0,1-.138-.591,1.36,1.36,0,1,1,1.777,1.293,1.96,1.96,0,0,0,.489,1.148c.125.107.256.238.307.288a8.879,8.879,0,0,1,5.911,10c.019.078.093.381.108.494a2.235,2.235,0,0,0,.8,1.131,1.353,1.353,0,1,1,0,2.168,2.235,2.235,0,0,0-.8,1.13c-.016.114-.089.417-.108.495a8.879,8.879,0,0,1-5.911,10c-.05.05-.182.18-.307.288a1.961,1.961,0,0,0-.489,1.148,1.357,1.357,0,1,1-1.64.7ZM209,278.108a7.538,7.538,0,0,0,5.882,2.815H215a7.538,7.538,0,0,0,5.882-2.815l-.4-.271a8.869,8.869,0,0,1-5.544-3.676,8.869,8.869,0,0,1-5.544,3.676Zm3.775-10.956,2.169,3.937,2.169-3.937L215.1,268.23l-.164,0h-.158Zm2.172-.492,1.8-.971,0-.841,0-.841-1.807-.971-1.8.971,0,.841,0,.841Zm-3.261-1.812v-.789l-.852.789.852.789Zm-1.87,1.022-.749-.678-.005-.344v-.335l.753-.687a9.067,9.067,0,0,1-1.861-1.69,8.992,8.992,0,0,0-6.187,2.712,8.988,8.988,0,0,0,6.187,2.713A9.06,9.06,0,0,1,209.812,265.87Zm-10.255-1.624a3.479,3.479,0,0,1-.6.6,3.482,3.482,0,0,1,.6.6q.141-.309.305-.605C199.753,264.653,199.651,264.451,199.557,264.245Z" transform="translate(-167.451 -237.823)" fill="#8b734a"/>
    <path id="Path_32" data-name="Path 32" d="M224.8,567.054a.842.842,0,0,0-.631.8.543.543,0,0,0,.177.423.688.688,0,0,0,.457.157,1.076,1.076,0,0,0,.887-.462.834.834,0,0,0,.172-.414c.006-.058.011-.224.017-.5V566.8A7.838,7.838,0,0,0,224.8,567.054Zm10.223-.209a3.214,3.214,0,0,0,.162,1.1c.155.421.391.6.7.6.589,0,.934-.492.934-1.7a3.525,3.525,0,0,0-.152-1.192.757.757,0,0,0-.738-.575C235.363,565.078,235.022,565.587,235.022,566.846Zm7.239-2.308h.456v1.7H242.2c-.174-.653-.477-1.16-1.226-1.16a.81.81,0,0,0-.486.14.448.448,0,0,0-.218.4.41.41,0,0,0,.266.379,3.164,3.164,0,0,0,.569.168l.522.115a3.742,3.742,0,0,1,.521.138,1.428,1.428,0,0,1,.469.287,1.213,1.213,0,0,1,.382.932,1.411,1.411,0,0,1-.49,1.12,1.583,1.583,0,0,1-1.064.345,1.917,1.917,0,0,1-1.215-.387l-.273.343H239.5v-1.9h.524c.2.768.567,1.373,1.447,1.373a.977.977,0,0,0,.542-.159.464.464,0,0,0,.233-.412.5.5,0,0,0-.381-.49,6.288,6.288,0,0,0-.825-.225,1.94,1.94,0,0,1-1.215-.536,1.362,1.362,0,0,1-.262-.856,1.269,1.269,0,0,1,.39-.976,1.436,1.436,0,0,1,1.014-.366,1.779,1.779,0,0,1,1.062.32Zm-7.843,3.865a2.408,2.408,0,0,1-.521-1.566,2.165,2.165,0,0,1,1.98-2.334,1.893,1.893,0,0,1,1.539.714,2.523,2.523,0,0,1,.53,1.629,2.366,2.366,0,0,1-.531,1.586,1.891,1.891,0,0,1-1.52.668A1.8,1.8,0,0,1,234.417,568.4Zm-2.872-3.224a1.515,1.515,0,0,0-.689.982,5.71,5.71,0,0,0-.225,1.685,3.681,3.681,0,0,0,.025.506,1.091,1.091,0,0,0,.51.083h.341v.531H228.9v-.523c.143-.012.286-.027.43-.027.215,0,.279-.035.289-.049a1.588,1.588,0,0,0,.025-.363v-2.443a.249.249,0,0,0-.166-.216,1.357,1.357,0,0,0-.361-.029h-.288v-.587l1.78-.1v.772a1.408,1.408,0,0,1,1.3-.9.789.789,0,0,1,.811.8c0,.449-.214.713-.642.713a.578.578,0,0,1-.571-.589A.688.688,0,0,1,231.545,565.179Zm-4.667,2.447c0,.134,0,.257.009.374a.307.307,0,0,0,.126.276.192.192,0,0,0,.2.033c.091-.036.183-.067.276-.1.131.03.231.1.231.248a.715.715,0,0,1-.366.442,1.053,1.053,0,0,1-.533.147.843.843,0,0,1-.832-.552,2.085,2.085,0,0,1-1.551.605,1.525,1.525,0,0,1-.943-.27,1.048,1.048,0,0,1-.417-.895c0-.907,1.015-1.45,2.805-1.718,0-.108,0-.283-.015-.526-.019-.364-.257-.569-.837-.569-.264,0-.7.064-.7.188a.176.176,0,0,0,.038.088,1.225,1.225,0,0,1,.148.419c0,.364-.229.545-.607.545s-.58-.255-.58-.669c0-.453.3-.785.839-1.006a2.579,2.579,0,0,1,1-.186,2.646,2.646,0,0,1,.888.13,1.224,1.224,0,0,1,.727.57,2.141,2.141,0,0,1,.126.891Zm-7.836-5.314,1.86-.1v6.034a.589.589,0,0,0,.012.147.125.125,0,0,0,.051.027,3.422,3.422,0,0,0,.384.016h.288v.531h-2.516v-.531h.111a4.876,4.876,0,0,0,.554-.023.169.169,0,0,0,.066-.064,2.933,2.933,0,0,0,.012-.342v-4.845a.37.37,0,0,0-.049-.2,1.023,1.023,0,0,0-.434-.057h-.341Zm-2.2-.041h.493l.134,2.776-.582.027c-.078-.3-.175-.6-.277-.894a2.444,2.444,0,0,0-.631-.97,1.566,1.566,0,0,0-1.036-.373,1.432,1.432,0,0,0-.857.271,1.582,1.582,0,0,0-.555.722,5.422,5.422,0,0,0-.3,1.987c0,1.826.635,2.661,1.847,2.661,1.282,0,1.732-.866,1.91-2l.625.109a3.016,3.016,0,0,1-.838,1.863,2.577,2.577,0,0,1-1.83.65,2.876,2.876,0,0,1-2.235-.984,3.32,3.32,0,0,1-.852-2.306,3.689,3.689,0,0,1,.8-2.436,2.888,2.888,0,0,1,2.273-1.156,2.306,2.306,0,0,1,1.583.551Z" transform="translate(-179.938 -482.983)" fill="#8b734a" fill-rule="evenodd"/>
  </g>
</svg>
