<svg id="Group_6" data-name="Group 6" xmlns="http://www.w3.org/2000/svg" width="162.159" height="89.251" viewBox="0 0 162.159 89.251">
  <g id="Group_1" data-name="Group 1" transform="translate(1.658 0)">
    <path id="Path_1" data-name="Path 1" d="M249.719,145.3h-22l-15.674-32.229L197.564,145.3H175.612l-16.719-34.322,17.164-35.356h20.656l-17.161,35.35,4.939,10.077,21.936-45.428h9.409Zm-19.589-3.849h13.438l-30.139-61.98h-4.586L184.517,129.85l-9.247-18.867,15.3-31.509h-12.1l-15.294,31.5,14.845,30.476h17.056L211.91,103.99ZM168.118,145.3H145.512l-15.94-34.342,17.154-35.336h21.834l-17,35.353Zm-20.15-3.849h14.02l-14.7-30.473,15.155-31.507h-13.3L133.833,111ZM110.725,145.3H89.3l33.757-69.677h21.4Zm-15.288-3.849h12.875l30-61.98H125.464Z" transform="translate(-89.296 -75.625)" fill="#d90018"/>
  </g>
  <path id="Path_2" data-name="Path 2" d="M239.46,305.855c0-.44.066-.682.22-.814a1.708,1.708,0,0,1,.968-.22c1.5,0,2.949.88,2.949,3.322,0,2.9-1.761,3.542-2.795,3.542a4.04,4.04,0,0,1-1.342-.22ZM235.2,304.01v.723c1.561.132,1.759.264,1.759,2.156v8.555c0,1.848-.2,2-1.891,2.156v.7h6.508v-.7c-1.915-.154-2.113-.286-2.113-2.134v-3.189l1.563.373a4.441,4.441,0,0,0,.924-.022c2.266-.285,4.418-1.625,4.418-4.551a3.712,3.712,0,0,0-1.538-3.19,6.43,6.43,0,0,0-3.805-.877Zm-1.19,0H228.6v.723c1.518.088,2,.462,2.134,1.254a22.662,22.662,0,0,1,.2,3.278v2.09c0,3.673-1.1,5.895-3.916,5.895-2.508,0-3.762-1.957-3.762-5.345v-4.861c0-2.046.2-2.178,1.848-2.31v-.723h-6.287v.723c1.671.154,1.869.264,1.869,2.31v5.3c0,2.573.615,4.2,1.867,5.19a6.125,6.125,0,0,0,3.761,1.1,5.565,5.565,0,0,0,4.026-1.58c1.252-1.32,1.625-3.19,1.625-5.609v-2.178a23.335,23.335,0,0,1,.154-3.234c.11-.836.638-1.232,1.891-1.3Zm-24.211.547c2.684,0,4.686,2.573,4.686,7.039,0,4.113-1.87,6.159-4.092,6.159-2.926,0-4.8-3.123-4.8-7.017,0-3.915,1.914-6.181,4.2-6.181m.418-.877a7.35,7.35,0,0,0-7.586,7.542,7.163,7.163,0,0,0,7.322,7.41,7.271,7.271,0,0,0,7.5-7.63,7.12,7.12,0,0,0-7.234-7.322m-17.243,7.631v-5.39c0-.506.044-.748.2-.88a1.906,1.906,0,0,1,1.056-.22c1.408,0,2.817.88,2.817,3.234a3.22,3.22,0,0,1-1.1,2.662,3.42,3.42,0,0,1-2.245.594Zm9.06,6.529a2.969,2.969,0,0,1-1.429-.99,14.948,14.948,0,0,1-1.736-2.353c-.659-.989-1.494-2.463-1.845-3.142a3.88,3.88,0,0,0,2.768-3.63,3.361,3.361,0,0,0-1.472-2.926,6.654,6.654,0,0,0-3.783-.789h-5.914v.723c1.649.132,1.847.308,1.847,2.112v8.6c0,1.826-.242,2-1.935,2.156v.7h6.332v-.7c-1.694-.154-1.893-.352-1.893-2.156v-3.322h.506a1.541,1.541,0,0,1,1.607.924c.638,1.121,1.32,2.375,1.958,3.342.923,1.407,1.8,1.979,4.176,2.089.242,0,.506.022.682.022Zm-14.822-6.287h-6.222v.7c2.244.2,2.376.352,2.376,1.892v2.024a1.319,1.319,0,0,1-.572,1.3,3.349,3.349,0,0,1-1.5.308c-3.828,0-5.544-3.564-5.544-6.817,0-3.982,2.354-6.4,5.258-6.4a3.976,3.976,0,0,1,4.265,3.454l.747-.132c-.176-1.65-.286-2.816-.352-3.585a20.1,20.1,0,0,0-4.265-.614c-4.51,0-8.6,2.571-8.6,7.631,0,4.376,3.252,7.32,8.268,7.32a21.76,21.76,0,0,0,4.99-.811,9.66,9.66,0,0,1-.154-2.068v-1.8c0-1.386.132-1.5,1.3-1.694Zm-41.407.792H142.15c.616-1.65,1.21-3.365,1.848-5.058h.066ZM152,318.3v-.7c-1.407-.176-1.693-.418-2.418-2.355-1.429-3.781-2.814-7.739-4.222-11.566l-.968.264-4.509,11.368c-.747,1.893-1.032,2.091-2.461,2.288v.7h4.858v-.7c-1.606-.2-1.716-.462-1.342-1.65.264-.88.572-1.717.858-2.531h4.378c.4,1.056.77,2.091,1.012,2.817.308.924.176,1.166-1.144,1.364v.7Zm-14.844,0v-.7a3.581,3.581,0,0,1-2.505-1.628c-1.385-1.693-3.32-4.091-4.794-6.2,1.144-1.188,2.311-2.419,3.432-3.475a4.983,4.983,0,0,1,3.516-1.562v-.723h-5.54v.723l.418.044c1.034.132,1.056.418.484,1.144a36.71,36.71,0,0,1-3.3,3.673,3.833,3.833,0,0,1-1.628,1.1v-3.761c0-1.914.2-2.068,1.8-2.2v-.723h-6.178v.723c1.693.132,1.891.264,1.891,2.2V315.4c0,1.892-.22,2.046-1.825,2.2v.7h6.244v-.7c-1.716-.154-1.936-.308-1.936-2.2v-4.047c.352-.044.638.066,1.122.7,1.716,2.31,3.521,4.729,4.752,6.244Zm-16.141-5.737h-5.275l-.308,1.448h5.253Zm-6.707,5.737v-.7a3.581,3.581,0,0,1-2.506-1.628c-1.385-1.693-3.32-4.091-4.794-6.2,1.144-1.188,2.31-2.419,3.432-3.475a4.983,4.983,0,0,1,3.516-1.562v-.723h-5.54v.723l.418.044c1.034.132,1.056.418.484,1.144a36.7,36.7,0,0,1-3.3,3.673,3.835,3.835,0,0,1-1.628,1.1v-3.761c0-1.914.2-2.068,1.8-2.2v-.723h-6.178v.723c1.693.132,1.891.264,1.891,2.2V315.4c0,1.892-.22,2.046-1.825,2.2v.7h6.244v-.7c-1.716-.154-1.936-.308-1.936-2.2v-4.047c.352-.044.638.066,1.122.7,1.716,2.31,3.52,4.729,4.752,6.244Zm-21.725-5.957H88.932c.616-1.65,1.21-3.365,1.848-5.058h.066Zm6.2,5.957v-.7c-1.406-.176-1.692-.418-2.418-2.355-1.429-3.781-2.814-7.739-4.222-11.566l-.968.264-4.509,11.368c-.747,1.893-1.033,2.091-2.461,2.288v.7h4.858v-.7c-1.606-.2-1.716-.462-1.342-1.65.264-.88.572-1.717.858-2.531h4.378c.4,1.056.77,2.091,1.012,2.817.308.924.176,1.166-1.144,1.364v.7Z" transform="translate(-84.206 -229.38)" fill="#464749"/>
</svg>
