<svg xmlns="http://www.w3.org/2000/svg" width="61.323" height="76.473" viewBox="0 0 61.323 76.473">
    <defs>
        <style>
            .cls-1{fill:#1a1818}.cls-2{fill:#ae0721}.cls-3{fill:#8b2119}
        </style>
    </defs>
    <g id="Group_53" data-name="Group 53" transform="translate(-214.167 -193.545)">
        <g id="Group_18" data-name="Group 18" transform="translate(214.242 228.841)">
            <path id="Path_7" d="M216.2 301.395h-1.83l5.1-11.762h1.495l5.05 11.762h-1.861l-1.2-2.891h-5.582zm1.761-4.336h4.4l-2.193-5.515z" class="cls-1" data-name="Path 7" transform="translate(-214.37 -289.633)"/>
        </g>
        <g id="Group_19" data-name="Group 19" transform="translate(232.742 228.841)">
            <path id="Path_8" d="M266.379 294.816h.033l5.249-5.183h2.276l-5.715 5.383 6.064 6.379h-2.359l-5.515-6.08h-.033v6.08h-1.645v-11.762h1.645z" class="cls-1" data-name="Path 8" transform="translate(-264.734 -289.633)"/>
        </g>
        <g id="Group_20" data-name="Group 20" transform="translate(249.032 228.841)">
            <path id="Path_9" d="M310.726 294.816h.033l5.25-5.183h2.276l-5.715 5.383 6.063 6.379h-2.359l-5.515-6.08h-.033v6.08h-1.645v-11.762h1.645z" class="cls-1" data-name="Path 9" transform="translate(-309.081 -289.633)"/>
        </g>
        <g id="Group_21" data-name="Group 21" transform="translate(263.777 228.841)">
            <path id="Path_10" d="M351.051 301.395h-1.827l5.1-11.762h1.5l5.05 11.762h-1.861l-1.2-2.891h-5.582zm1.761-4.336h4.4l-2.193-5.515z" class="cls-1" data-name="Path 10" transform="translate(-349.224 -289.633)"/>
        </g>
        <g id="Group_22" data-name="Group 22" transform="translate(214.773 246.124)">
            <path id="Path_11" d="M222.479 339.159a2.621 2.621 0 0 0-.947-.789 2.9 2.9 0 0 0-1.346-.307 3.133 3.133 0 0 0-.806.108 2.212 2.212 0 0 0-.739.349 1.922 1.922 0 0 0-.54.6 1.674 1.674 0 0 0-.208.856 1.566 1.566 0 0 0 .191.806 1.733 1.733 0 0 0 .515.548 3.28 3.28 0 0 0 .764.382q.44.158.939.324.6.183 1.213.415a4.353 4.353 0 0 1 1.113.615 3.032 3.032 0 0 1 .814.955 2.994 2.994 0 0 1 .316 1.454 3.474 3.474 0 0 1-.34 1.587 3.245 3.245 0 0 1-.905 1.113 3.852 3.852 0 0 1-1.3.656 5.406 5.406 0 0 1-1.52.216 5.547 5.547 0 0 1-2.151-.432 4.268 4.268 0 0 1-1.719-1.279l1.279-1.08a3.13 3.13 0 0 0 1.113 1 3.1 3.1 0 0 0 1.512.382 3.058 3.058 0 0 0 .831-.116 2.323 2.323 0 0 0 .756-.366 2 2 0 0 0 .557-.623 1.78 1.78 0 0 0 .216-.905 1.643 1.643 0 0 0-.224-.889 1.981 1.981 0 0 0-.606-.606 4.028 4.028 0 0 0-.889-.424q-.507-.175-1.072-.357a9.2 9.2 0 0 1-1.113-.407 3.848 3.848 0 0 1-.98-.615 2.846 2.846 0 0 1-.7-.922 3.116 3.116 0 0 1-.266-1.362 3.022 3.022 0 0 1 .357-1.512 3.256 3.256 0 0 1 .93-1.047 3.873 3.873 0 0 1 1.3-.606 5.678 5.678 0 0 1 1.454-.191 5.068 5.068 0 0 1 1.927.365 3.841 3.841 0 0 1 1.445.98z" class="cls-1" data-name="Path 11" transform="translate(-215.817 -336.684)"/>
        </g>
        <g id="Group_23" data-name="Group 23" transform="translate(226.204 246.423)">
            <path id="Path_12" d="M251.505 349.559a4.886 4.886 0 0 1-2.027-.391 4.1 4.1 0 0 1-1.429-1.038 4.245 4.245 0 0 1-.839-1.487 5.559 5.559 0 0 1-.274-1.736V337.5h1.645v7.309a4.8 4.8 0 0 0 .15 1.188 3.013 3.013 0 0 0 .49 1.055 2.476 2.476 0 0 0 .9.748 3.526 3.526 0 0 0 2.766 0 2.469 2.469 0 0 0 .905-.748 3.034 3.034 0 0 0 .49-1.055 4.82 4.82 0 0 0 .149-1.188V337.5h1.645v7.409a5.559 5.559 0 0 1-.274 1.736 4.252 4.252 0 0 1-.839 1.487 4.107 4.107 0 0 1-1.429 1.038 4.887 4.887 0 0 1-2.029.389z" class="cls-1" data-name="Path 12" transform="translate(-246.937 -337.498)"/>
        </g>
        <g id="Group_24" data-name="Group 24" transform="translate(239.667 246.423)">
            <path id="Path_13" d="M285.231 349.26h-1.645V337.5h1.645z" class="cls-1" data-name="Path 13" transform="translate(-283.586 -337.498)"/>
        </g>
        <g id="Group_25" data-name="Group 25" transform="translate(244.369 246.423)">
            <path id="Path_14" d="M301.8 349.26h-1.645v-10.317h-3.771V337.5h9.187v1.445H301.8z" class="cls-1" data-name="Path 14" transform="translate(-296.388 -337.498)"/>
        </g>
        <g id="Group_26" data-name="Group 26" transform="translate(256.668 246.423)">
            <path id="Path_15" d="M331.515 347.8h6.147v1.462h-7.792V337.5h7.542v1.445h-5.9v3.522h5.549v1.412h-5.549z" class="cls-1" data-name="Path 15" transform="translate(-329.87 -337.498)"/>
        </g>
        <g id="Group_27" data-name="Group 27" transform="translate(267.482 246.124)">
            <path id="Path_16" d="M365.971 339.159a2.624 2.624 0 0 0-.947-.789 2.9 2.9 0 0 0-1.346-.307 3.13 3.13 0 0 0-.806.108 2.217 2.217 0 0 0-.739.349 1.93 1.93 0 0 0-.54.6 1.674 1.674 0 0 0-.208.856 1.563 1.563 0 0 0 .191.806 1.733 1.733 0 0 0 .515.548 3.277 3.277 0 0 0 .764.382q.44.158.939.324.6.183 1.213.415a4.347 4.347 0 0 1 1.113.615 3.033 3.033 0 0 1 .814.955 2.994 2.994 0 0 1 .315 1.454 3.479 3.479 0 0 1-.34 1.587 3.253 3.253 0 0 1-.905 1.113 3.859 3.859 0 0 1-1.3.656 5.407 5.407 0 0 1-1.52.216 5.545 5.545 0 0 1-2.151-.432 4.268 4.268 0 0 1-1.719-1.279l1.279-1.08a3.133 3.133 0 0 0 1.113 1 3.1 3.1 0 0 0 1.512.382 3.057 3.057 0 0 0 .831-.116 2.325 2.325 0 0 0 .756-.366 2.007 2.007 0 0 0 .557-.623 1.78 1.78 0 0 0 .216-.905 1.646 1.646 0 0 0-.224-.889 1.983 1.983 0 0 0-.607-.606 4.021 4.021 0 0 0-.889-.424q-.507-.175-1.072-.357a9.244 9.244 0 0 1-1.113-.407 3.846 3.846 0 0 1-.98-.615 2.835 2.835 0 0 1-.7-.922 3.11 3.11 0 0 1-.266-1.362 3.021 3.021 0 0 1 .357-1.512 3.253 3.253 0 0 1 .93-1.047 3.872 3.872 0 0 1 1.3-.606 5.676 5.676 0 0 1 1.454-.191 5.067 5.067 0 0 1 1.927.365 3.836 3.836 0 0 1 1.445.98z" class="cls-1" data-name="Path 16" transform="translate(-359.309 -336.684)"/>
        </g>
        <g id="Group_28" data-name="Group 28" transform="translate(214.242 243.415)">
            <path id="Rectangle_13" d="M0 0h61.203v.255H0z" class="cls-2" data-name="Rectangle 13"/>
        </g>
        <g id="Group_45" data-name="Group 45" transform="translate(230.125 193.545)">
            <g id="Group_32" data-name="Group 32" transform="translate(0 9.81)">
                <g id="Group_29" data-name="Group 29" transform="translate(.738 7.019)">
                    <path id="Path_17" d="M262.5 239.358l-.022.01c-.964.858-1.913 1.731-2.862 2.6a44.061 44.061 0 0 0 6.147-.735 9.99 9.99 0 0 0 2.961-1.057c-1.688.509-4.038-.052-6.224-.818z" class="cls-3" data-name="Path 17" transform="translate(-259.619 -239.358)"/>
                </g>
                <g id="Group_30" data-name="Group 30" transform="translate(.738)">
                    <path id="Path_18" d="M262.481 222.851a.093.093 0 0 1 .022.012c2.187-.766 4.542-1.329 6.234-.814a10.246 10.246 0 0 0-3.228-1.116 47.081 47.081 0 0 0-5.889-.681c.948.87 1.897 1.742 2.861 2.599z" class="cls-3" data-name="Path 18" transform="translate(-259.619 -220.251)"/>
                </g>
                <g id="Group_31" data-name="Group 31" transform="translate(0 2.345)">
                    <path id="Path_19" d="M269.03 229.106c-.626-4.768-8.007-1.416-11.421 0 3.412 1.414 10.791 4.764 11.421 0z" class="cls-3" data-name="Path 19" transform="translate(-257.609 -226.636)"/>
                </g>
            </g>
            <g id="Group_36" data-name="Group 36" transform="translate(17.994 9.81)">
                <g id="Group_33" data-name="Group 33" transform="translate(1.575 7.019)">
                    <path id="Path_20" d="M317.108 239.358l.022.01c.964.858 1.913 1.731 2.862 2.6a44.066 44.066 0 0 1-6.147-.735 9.988 9.988 0 0 1-2.961-1.057c1.69.509 4.041-.052 6.224-.818z" class="cls-3" data-name="Path 20" transform="translate(-310.884 -239.358)"/>
                </g>
                <g id="Group_34" data-name="Group 34" transform="translate(1.565)">
                    <path id="Path_21" d="M317.112 222.851a.1.1 0 0 0-.022.012c-2.187-.766-4.542-1.329-6.234-.814a10.247 10.247 0 0 1 3.228-1.116 47.086 47.086 0 0 1 5.89-.681c-.949.87-1.898 1.742-2.862 2.599z" class="cls-3" data-name="Path 21" transform="translate(-310.856 -220.251)"/>
                </g>
                <g id="Group_35" data-name="Group 35" transform="translate(0 2.345)">
                    <path id="Path_22" d="M306.6 229.106c.626-4.768 8.007-1.416 11.421 0-3.421 1.414-10.8 4.764-11.421 0z" class="cls-3" data-name="Path 22" transform="translate(-306.595 -226.636)"/>
                </g>
            </g>
            <g id="Group_40" data-name="Group 40" transform="translate(10.038)">
                <g id="Group_37" data-name="Group 37" transform="translate(7.019 .738)">
                    <path id="Path_23" d="M304.042 198.439c0-.007.007-.014.01-.022.858-.964 1.731-1.913 2.6-2.862a44.066 44.066 0 0 1-.735 6.147 9.982 9.982 0 0 1-1.057 2.961c.509-1.691-.052-4.041-.818-6.224z" class="cls-3" data-name="Path 23" transform="translate(-304.042 -195.555)"/>
                </g>
                <g id="Group_38" data-name="Group 38" transform="translate(0 .738)">
                    <path id="Path_24" d="M287.535 198.417a.094.094 0 0 0 .012.022c-.766 2.187-1.329 4.542-.814 6.234a10.247 10.247 0 0 1-1.116-3.228 47.1 47.1 0 0 1-.681-5.889c.87.944 1.742 1.897 2.599 2.861z" class="cls-3" data-name="Path 24" transform="translate(-284.935 -195.555)"/>
                </g>
                <g id="Group_39" data-name="Group 39" transform="translate(2.345)">
                    <path id="Path_25" d="M293.79 204.966c-4.768-.626-1.416-8.007 0-11.421 1.41 3.413 4.764 10.795 0 11.421z" class="cls-3" data-name="Path 25" transform="translate(-291.32 -193.545)"/>
                </g>
            </g>
            <g id="Group_44" data-name="Group 44" transform="translate(10.038 17.994)">
                <g id="Group_41" data-name="Group 41" transform="translate(7.019 1.575)">
                    <path id="Path_26" d="M304.042 253.044c0 .007.007.015.01.022.858.964 1.731 1.913 2.6 2.862a44.071 44.071 0 0 0-.735-6.147 9.98 9.98 0 0 0-1.057-2.961c.509 1.69-.052 4.041-.818 6.224z" class="cls-3" data-name="Path 26" transform="translate(-304.042 -246.82)"/>
                </g>
                <g id="Group_42" data-name="Group 42" transform="translate(0 1.565)">
                    <path id="Path_27" d="M287.535 253.048a.1.1 0 0 1 .012-.022c-.766-2.187-1.329-4.542-.814-6.234a10.246 10.246 0 0 0-1.116 3.228 47.1 47.1 0 0 0-.681 5.89c.87-.949 1.742-1.898 2.599-2.862z" class="cls-3" data-name="Path 27" transform="translate(-284.935 -246.792)"/>
                </g>
                <g id="Group_43" data-name="Group 43" transform="translate(2.345)">
                    <path id="Path_28" d="M293.79 242.531c-4.768.626-1.416 8.007 0 11.421 1.41-3.412 4.764-10.795 0-11.421z" class="cls-3" data-name="Path 28" transform="translate(-291.32 -242.531)"/>
                </g>
            </g>
        </g>
        <g id="Group_52" data-name="Group 52" transform="translate(214.167 262.457)">
            <g id="Group_46" data-name="Group 46" transform="translate(0 1.62)">
                <path id="Path_29" d="M216.835 391.352h-.81v-5.081h-1.857v-.712h4.525v.712h-1.857z" class="cls-1" data-name="Path 29" transform="translate(-214.167 -385.559)"/>
            </g>
            <g id="Group_47" data-name="Group 47" transform="translate(10.631 1.62)">
                <path id="Path_30" d="M244.009 391.352h-.9l2.512-5.793h.736l2.488 5.793h-.916l-.589-1.424h-2.75zm.867-2.136h2.168l-1.08-2.716z" class="cls-1" data-name="Path 30" transform="translate(-243.109 -385.559)"/>
            </g>
            <g id="Group_48" data-name="Group 48" transform="translate(23.603 1.62)">
                <path id="Path_31" d="M279.232 388.112h.016l2.586-2.553h1.121l-2.815 2.651 2.987 3.142h-1.162l-2.716-2.995h-.016v2.995h-.81v-5.793h.81z" class="cls-1" data-name="Path 31" transform="translate(-278.422 -385.559)"/>
            </g>
            <g id="Group_49" data-name="Group 49" transform="translate(35.085 1.473)">
                <path id="Path_32" d="M312.962 386.377a1.294 1.294 0 0 0-.467-.389 1.432 1.432 0 0 0-.663-.151 1.552 1.552 0 0 0-.4.053 1.1 1.1 0 0 0-.364.172.942.942 0 0 0-.266.295.822.822 0 0 0-.1.421.77.77 0 0 0 .094.4.853.853 0 0 0 .253.27 1.608 1.608 0 0 0 .377.188q.217.078.462.159.295.09.6.2a2.151 2.151 0 0 1 .548.3 1.5 1.5 0 0 1 .4.471 1.473 1.473 0 0 1 .155.716 1.711 1.711 0 0 1-.168.781 1.6 1.6 0 0 1-.446.548 1.9 1.9 0 0 1-.642.323 2.661 2.661 0 0 1-.749.107 2.731 2.731 0 0 1-1.059-.213 2.105 2.105 0 0 1-.847-.63l.63-.532a1.545 1.545 0 0 0 .548.491 1.528 1.528 0 0 0 .745.188 1.5 1.5 0 0 0 .409-.058 1.139 1.139 0 0 0 .372-.18 1 1 0 0 0 .274-.307.883.883 0 0 0 .106-.446.806.806 0 0 0-.111-.438.973.973 0 0 0-.3-.3 1.975 1.975 0 0 0-.438-.209q-.25-.086-.527-.176a4.489 4.489 0 0 1-.548-.2 1.9 1.9 0 0 1-.483-.3 1.4 1.4 0 0 1-.343-.454 1.53 1.53 0 0 1-.131-.671 1.49 1.49 0 0 1 .176-.745 1.6 1.6 0 0 1 .458-.515 1.914 1.914 0 0 1 .638-.3 2.786 2.786 0 0 1 .716-.094 2.5 2.5 0 0 1 .949.18 1.893 1.893 0 0 1 .712.483z" class="cls-1" data-name="Path 32" transform="translate(-309.681 -385.158)"/>
            </g>
            <g id="Group_50" data-name="Group 50" transform="translate(46.543)">
                <path id="Path_33" d="M341.888 381.648a.459.459 0 0 1-.15.352.513.513 0 0 1-.361.139.491.491 0 0 1-.357-.143.468.468 0 0 1-.146-.347.479.479 0 0 1 .146-.356.491.491 0 0 1 .357-.143.5.5 0 0 1 .361.143.471.471 0 0 1 .15.355zm-.114 6.914h-.81v-5.793h.81z" class="cls-1" data-name="Path 33" transform="translate(-340.873 -381.149)"/>
            </g>
            <g id="Group_51" data-name="Group 51" transform="translate(55.341 1.62)">
                <path id="Path_34" d="M367.821 390.01h.017l1.71-4.451h1.26v5.793H370v-4.844h-.017l-1.923 4.844h-.516l-1.915-4.844h-.017v4.844h-.785v-5.793h1.26z" class="cls-1" data-name="Path 34" transform="translate(-364.826 -385.559)"/>
            </g>
        </g>
    </g>
</svg>
