<svg xmlns="http://www.w3.org/2000/svg" width="68.175" height="37.523" viewBox="0 0 68.175 37.523">
    <defs>
        <style>
            .cls-1{fill:#fff}
        </style>
    </defs>
    <g id="Component_7_1" data-name="Component 7 – 1">
        <g id="Group_1" data-name="Group 1" transform="translate(.697)">
            <path id="Path_1" d="M156.741 104.919h-9.248l-6.59-13.55-6.089 13.55h-9.229l-7.029-14.43 7.216-14.864h8.684l-7.215 14.862 2.077 4.237 9.222-19.1h3.96zm-8.236-1.618h5.65l-12.671-26.058h-1.928l-10.227 21.179-3.888-7.932 6.431-13.247h-5.087l-6.43 13.245L126.6 103.3h7.171l7.078-15.75zm-26.071 1.618h-9.5l-6.7-14.438 7.212-14.856h9.18l-7.149 14.863zm-8.471-1.618h5.894l-6.182-12.812 6.371-13.246h-5.593L108.02 90.5zm-15.658 1.618H89.3l14.192-29.294h9zm-6.427-1.619h5.413L109.9 77.243h-5.4z" class="cls-1" data-name="Path 1" transform="translate(-89.296 -75.625)"/>
        </g>
        <path id="Path_2" d="M149.478 304.594c0-.185.028-.287.093-.342a.718.718 0 0 1 .407-.093c.629 0 1.24.37 1.24 1.4 0 1.221-.74 1.489-1.175 1.489a1.7 1.7 0 0 1-.564-.092zm-1.792-.776v.3c.656.055.74.111.74.906v3.6c0 .777-.083.842-.8.906v.295h2.736v-.295c-.8-.065-.888-.12-.888-.9v-1.341l.657.157a1.864 1.864 0 0 0 .389-.009 1.9 1.9 0 0 0 1.858-1.913 1.561 1.561 0 0 0-.646-1.341 2.7 2.7 0 0 0-1.6-.369zm-.5 0h-2.274v.3c.638.037.842.194.9.527a9.529 9.529 0 0 1 .083 1.378v.879c0 1.544-.462 2.478-1.646 2.478-1.054 0-1.582-.823-1.582-2.247v-2.044c0-.86.083-.916.777-.971v-.3H140.8v.3c.7.065.786.111.786.971v2.229a2.194 2.194 0 0 0 2.366 2.643 2.34 2.34 0 0 0 1.693-.664 3.263 3.263 0 0 0 .683-2.358v-.916a9.815 9.815 0 0 1 .065-1.359c.046-.351.268-.518.8-.546zm-10.179.23c1.128 0 1.97 1.082 1.97 2.959 0 1.729-.786 2.589-1.72 2.589-1.23 0-2.016-1.313-2.016-2.95s.8-2.6 1.767-2.6m.176-.369a3.09 3.09 0 0 0-3.189 3.171 3.011 3.011 0 0 0 3.078 3.115 3.057 3.057 0 0 0 3.152-3.208 2.994 2.994 0 0 0-3.041-3.078m-7.249 3.208v-2.266c0-.213.019-.315.083-.37a.8.8 0 0 1 .444-.093c.592 0 1.184.37 1.184 1.36a1.354 1.354 0 0 1-.463 1.119 1.438 1.438 0 0 1-.944.25zm3.809 2.745a1.248 1.248 0 0 1-.6-.416 6.285 6.285 0 0 1-.73-.989 17.119 17.119 0 0 1-.776-1.321 1.631 1.631 0 0 0 1.164-1.526 1.413 1.413 0 0 0-.619-1.23 2.8 2.8 0 0 0-1.59-.332H128.1v.3c.693.055.777.129.777.888v3.615c0 .768-.1.842-.814.906v.295h2.662v-.295c-.712-.065-.8-.148-.8-.906v-1.4h.213a.648.648 0 0 1 .675.388c.268.471.555 1 .823 1.405a1.812 1.812 0 0 0 1.756.878c.1 0 .213.009.287.009zm-6.231-2.643H124.9v.295c.943.083 1 .148 1 .8v.851a.555.555 0 0 1-.241.546 1.408 1.408 0 0 1-.629.129c-1.609 0-2.331-1.5-2.331-2.866 0-1.674.99-2.692 2.211-2.692a1.672 1.672 0 0 1 1.79 1.45l.314-.055a77.546 77.546 0 0 1-.148-1.507 8.451 8.451 0 0 0-1.793-.258c-1.9 0-3.615 1.081-3.615 3.208 0 1.84 1.367 3.078 3.476 3.078a9.147 9.147 0 0 0 2.1-.341 4.062 4.062 0 0 1-.065-.87V308c0-.583.055-.629.546-.712zm-17.408.333h-1.535c.259-.694.509-1.415.777-2.127h.028zm2.606 2.5v-.295c-.591-.074-.712-.176-1.016-.99-.6-1.59-1.183-3.254-1.775-4.863l-.407.111-1.9 4.779c-.314.8-.434.879-1.035.962v.295h2.042v-.295c-.675-.083-.721-.194-.564-.694.111-.37.241-.722.361-1.064h1.841c.167.444.324.879.425 1.184.129.389.074.49-.481.573v.295zm-6.241 0v-.295a1.506 1.506 0 0 1-1.053-.684c-.582-.712-1.4-1.72-2.016-2.608.481-.5.971-1.017 1.443-1.461a2.1 2.1 0 0 1 1.478-.657v-.3h-2.329v.3l.176.019c.435.055.444.176.2.481a15.431 15.431 0 0 1-1.388 1.544 1.611 1.611 0 0 1-.684.462v-1.581c0-.8.083-.869.759-.925v-.3h-2.6v.3c.712.056.8.111.8.925v3.56c0 .8-.092.86-.767.925v.295h2.625v-.295c-.722-.065-.814-.129-.814-.925v-1.7c.148-.018.268.028.472.3.722.971 1.48 1.988 2 2.625zm-6.786-2.412h-2.22l-.129.609h2.209zm-2.82 2.412v-.295a1.506 1.506 0 0 1-1.053-.684c-.582-.712-1.4-1.72-2.016-2.608.481-.5.971-1.017 1.443-1.461a2.1 2.1 0 0 1 1.478-.657v-.3h-2.331v.3l.176.019c.435.055.444.176.2.481a15.426 15.426 0 0 1-1.388 1.544 1.612 1.612 0 0 1-.685.462v-1.581c0-.8.083-.869.759-.925v-.3h-2.6v.3c.712.056.8.111.8.925v3.56c0 .8-.092.86-.767.925v.295h2.625v-.295c-.721-.065-.814-.129-.814-.925v-1.7c.148-.018.268.028.472.3.721.971 1.48 1.988 2 2.625zm-9.134-2.5h-1.537c.259-.694.509-1.415.777-2.127H87zm2.606 2.5v-.295c-.591-.074-.711-.176-1.016-.99-.6-1.59-1.183-3.254-1.775-4.863l-.407.111-1.9 4.779c-.314.8-.434.879-1.035.962v.295h2.042v-.295c-.675-.083-.721-.194-.564-.694.111-.37.24-.722.361-1.064h1.841c.167.444.324.879.426 1.184.129.389.074.49-.481.573v.295z" class="cls-1" data-name="Path 2" transform="translate(-84.206 -272.443)"/>
    </g>
</svg>
