<svg xmlns="http://www.w3.org/2000/svg" width="927.031" height="402.642" viewBox="0 0 927.031 402.642">
  <g id="Group_1" data-name="Group 1" opacity="0.031">
    <path id="Path_1" data-name="Path 1" d="M1016.327,478.267H889.214L798.637,292.025,714.942,478.267H588.088L491.477,279.933,590.66,75.625H710.021L610.853,279.9,639.4,338.136,766.159,75.625h54.372Zm-113.2-22.24H980.78L806.617,97.865h-26.5L639.547,388.972,586.111,279.948,674.5,97.865H604.584L516.208,279.916l85.786,176.111h98.562l97.288-216.489Zm-358.343,22.24H414.15L322.04,279.818,421.168,75.625H547.341L449.077,279.918Zm-116.44-22.24H509.36L424.391,279.933,511.966,97.865H435.092L346.658,280.031Zm-215.218,22.24H89.3L284.364,75.625H408.01Zm-88.343-22.24h74.4L372.537,97.865H298.3Z" transform="translate(-89.296 -75.625)" fill="#fff"/>
  </g>
</svg>
