<svg xmlns="http://www.w3.org/2000/svg" width="281.024" height="331.03" viewBox="0 0 281.024 331.03">
  <g id="Group_13" data-name="Group 13" transform="translate(149 62.933)">
    <g id="Path_5" data-name="Path 5" transform="translate(-223.54 -99.91)" fill="#fff">
      <path d="M 347.3169555664062 363.0061645507812 L 243.9867858886719 363.0061645507812 L 82.64830780029297 41.97651672363281 L 179.9146423339844 41.97651672363281 L 347.3169555664062 363.0061645507812 Z" stroke="none"/>
      <path d="M 90.75701904296875 46.97647094726562 L 247.0698699951172 358.0061950683594 L 339.0707092285156 358.0061950683594 L 176.8829498291016 46.97647094726562 L 90.75701904296875 46.97647094726562 M 74.53952026367188 36.97647094726562 L 182.9463195800781 36.97647094726562 L 355.5631713867188 368.0061950683594 L 240.9036712646484 368.0061950683594 L 74.53952026367188 36.97647094726562 Z" stroke="none" fill="#d90018"/>
    </g>
    <g id="Path_6" data-name="Path 6" transform="translate(-779.383 -1094.337)" fill="#fff">
      <path d="M723.01,1230.07H652.028L720.6,1362.433h70.3Z" stroke="none"/>
      <path d="M 668.470947265625 1240.070068359375 L 726.6852416992188 1352.433471679688 L 774.5400390625 1352.433471679688 L 716.9010009765625 1240.070068359375 L 668.470947265625 1240.070068359375 M 652.0276489257812 1230.070068359375 L 723.01025390625 1230.070068359375 L 790.90869140625 1362.433471679688 L 720.603759765625 1362.433471679688 L 652.0276489257812 1230.070068359375 Z" stroke="none" fill="rgba(9,8,6,0.2)"/>
    </g>
  </g>
</svg>
